<svg width="512" height="512" viewBox="0 0 512 512" fill="none" xmlns="http://www.w3.org/2000/svg">
<rect width="512" height="512" fill="#F1E8D9"/>
<path d="M258.006 129.005C321.653 129.401 373 154.855 373 186.197C373 196.975 366.928 207.055 356.373 215.66C358.578 216.89 360.085 219.096 360.213 221.639H360.223V368.316H360.183C359.612 376.043 352.813 382.169 344.438 382.348V382.353H168.562V382.348C160.187 382.169 153.388 376.043 152.817 368.316H152.777V221.639H152.787C152.915 219.096 154.422 216.89 156.627 215.66C146.072 207.055 140 196.975 140 186.197C140 154.608 192.159 129 256.5 129L258.006 129.005Z" fill="#463222"/>
<path d="M204 338.467V190.467H234.107V224.414C234.107 227.312 233.967 230.278 233.688 233.314C233.549 236.212 233.27 239.179 232.852 242.215C232.434 245.251 231.946 248.356 231.389 251.53C230.97 254.704 230.413 257.809 229.716 260.844H234.525C236.476 253.945 238.915 247.942 241.842 242.836C244.909 237.73 248.811 233.797 253.55 231.037C258.289 228.278 264.283 226.898 271.531 226.898C284.354 226.898 293.971 231.382 300.383 240.352C306.794 249.184 310 262.776 310 281.13V338.467H279.893V285.891C279.893 274.299 278.151 265.674 274.667 260.016C271.182 254.359 266.025 251.53 259.195 251.53C253.62 251.53 249.02 253.186 245.396 256.498C241.773 259.809 238.985 264.225 237.034 269.745C235.222 275.265 234.246 281.475 234.107 288.374V338.467H204Z" fill="#C28B4E"/>
</svg>
