<svg width="512" height="512" viewBox="0 0 512 512" fill="none" xmlns="http://www.w3.org/2000/svg">
<rect width="512" height="512" fill="#1E1E1E"/>
<rect width="512" height="512" fill="#F1E8D9"/>
<path d="M256 76C347.679 76 422 112.489 422 157.5C422 172.856 413.348 187.219 398.309 199.481C401.45 201.234 403.598 204.377 403.78 208H403.794V417H403.737C402.925 428.01 393.236 436.739 381.304 436.993V437H130.696V436.993C118.764 436.739 109.075 428.01 108.263 417H108.206V208H108.22C108.402 204.377 110.55 201.234 113.691 199.481C98.652 187.219 90 172.856 90 157.5C90 112.489 164.321 76 256 76Z" fill="#463222"/>
<path d="M182 366V157H224.036V204.938C224.036 209.031 223.841 213.221 223.452 217.508C223.257 221.6 222.868 225.79 222.284 230.077C221.7 234.364 221.019 238.749 220.241 243.231C219.657 247.713 218.878 252.097 217.905 256.385H224.619C227.344 246.641 230.75 238.164 234.836 230.954C239.118 223.744 244.567 218.19 251.183 214.292C257.8 210.395 266.168 208.446 276.288 208.446C294.192 208.446 307.62 214.779 316.572 227.446C325.524 239.918 330 259.113 330 285.031V366H287.965V291.754C287.965 275.385 285.532 263.205 280.667 255.215C275.801 247.226 268.601 243.231 259.065 243.231C251.281 243.231 244.859 245.569 239.799 250.246C234.739 254.923 230.847 261.159 228.122 268.954C225.592 276.749 224.23 285.518 224.036 295.262V366H182Z" fill="#C28B4E"/>
</svg>
